HIERARCHY
ROOT SpineBase
{
  OFFSET 0.000000 0.000000 0.000000
  CHANNELS 6 Xposition Yposition Zposition Zrotation Xrotation Yrotation
  JOINT SpineMid
  {
    OFFSET -0.000000 33.130872 0.000000
    CHANNELS 3 Zrotation Xrotation Yrotation
    JOINT SpineShoulder
    {
      OFFSET 0.168479 24.607409 -0.795359
      CHANNELS 3 Zrotation Xrotation Yrotation
      JOINT Neck
      {
        OFFSET 0.119262 8.142296 -0.599758
        CHANNELS 3 Zrotation Xrotation Yrotation
        JOINT Head
        {
          OFFSET 6.747407 11.549105 4.609452
          CHANNELS 3 Zrotation Xrotation Yrotation
          End Site
          {
            OFFSET 0 0 0
          }
        }
      }
      JOINT ShoulderLeft
      {
        OFFSET -6.765977 -3.423861 -15.041229
        CHANNELS 3 Zrotation Xrotation Yrotation
        JOINT ElbowLeft
        {
          OFFSET -5.185844 -21.948434 -8.688306
          CHANNELS 3 Zrotation Xrotation Yrotation
          JOINT WristLeft
          {
            OFFSET 6.874976 -21.932774 -2.210846
            CHANNELS 3 Zrotation Xrotation Yrotation
            JOINT HandLeft
            {
              OFFSET 1.061328 -9.303977 3.397398
              CHANNELS 3 Zrotation Xrotation Yrotation
              JOINT HandTipLeft
              {
                OFFSET 3.100822 -9.214635 0.587751
                CHANNELS 3 Zrotation Xrotation Yrotation
                End Site
                {
                  OFFSET 0 0 0
                }
              }
              JOINT ThumbLeft
              {
                OFFSET -2.374888 -3.495296 -2.947383
                CHANNELS 3 Zrotation Xrotation Yrotation
                End Site
                {
                  OFFSET 0 0 0
                }
              }
            }
          }
        }
      }
      JOINT ShoulderRight
      {
        OFFSET 8.670919 -2.533434 16.082328
        CHANNELS 3 Zrotation Xrotation Yrotation
        JOINT ElbowRight
        {
          OFFSET 2.904045 -30.080012 1.354143
          CHANNELS 3 Zrotation Xrotation Yrotation
          JOINT WristRight
          {
            OFFSET 2.679318 -26.031272 -3.186580
            CHANNELS 3 Zrotation Xrotation Yrotation
            JOINT HandRight
            {
              OFFSET 0.688466 -3.207397 -1.125626
              CHANNELS 3 Zrotation Xrotation Yrotation
              JOINT HandTipRight
              {
                OFFSET -0.198514 -5.193111 -1.206333
                CHANNELS 3 Zrotation Xrotation Yrotation
                End Site
                {
                  OFFSET 0 0 0
                }
              }
              JOINT ThumbRight
              {
                OFFSET 1.741170 -0.680123 0.112430
                CHANNELS 3 Zrotation Xrotation Yrotation
                End Site
                {
                  OFFSET 0 0 0
                }
              }
            }
          }
        }
      }
    }
  }
  JOINT HipLeft
  {
    OFFSET -2.649178 1.901232 -9.387521
    CHANNELS 3 Zrotation Xrotation Yrotation
    JOINT KneeLeft
    {
      OFFSET -5.975219 -33.193018 -5.565894
      CHANNELS 3 Zrotation Xrotation Yrotation
      JOINT AnkleLeft
      {
        OFFSET -10.105754 -33.906246 6.581980
        CHANNELS 3 Zrotation Xrotation Yrotation
        JOINT FootLeft
        {
          OFFSET 4.690133 -7.191361 -0.281178
          CHANNELS 3 Zrotation Xrotation Yrotation
          End Site
          {
            OFFSET 0 0 0
          }
        }
      }
    }
  }
  JOINT HipRight
  {
    OFFSET 3.728562 0.231063 2.208098
    CHANNELS 3 Zrotation Xrotation Yrotation
    JOINT KneeRight
    {
      OFFSET -0.183169 -34.392772 0.488987
      CHANNELS 3 Zrotation Xrotation Yrotation
      JOINT AnkleRight
      {
        OFFSET -9.169892 -32.249833 0.556194
        CHANNELS 3 Zrotation Xrotation Yrotation
        JOINT FootRight
        {
          OFFSET 2.487402 -7.311590 -7.673865
          CHANNELS 3 Zrotation Xrotation Yrotation
          End Site
          {
            OFFSET 0 0 0
          }
        }
      }
    }
  }
}
MOTION
Frames: 13
Frame Time: 0.033333
-47.922031 76.994994 324.355189 0.000000 0.000000 -61.188637 -0.000000 0.000000 61.188637 -0.000000 0.000000 0.000000 -0.000000 0.000000 0.000000 0.000000 0.000000 0.000000 -0.000000 0.000000 0.000000 -0.000000 0.000000 0.000000 -0.000000 0.000000 0.000000 -0.000000 0.000000 0.000000 0.000000 0.000000 0.000000 0.000000 0.000000 0.000000 -0.000000 0.000000 0.000000 -0.000000 0.000000 0.000000 -0.000000 0.000000 0.000000 -0.000000 0.000000 0.000000 0.000000 0.000000 0.000000 0.000000 0.000000 0.000000 -0.000000 0.000000 61.188637 -0.000000 0.000000 0.000000 -0.000000 0.000000 0.000000 0.000000 0.000000 0.000000 -0.000000 0.000000 61.188637 -0.000000 0.000000 0.000000 -0.000000 0.000000 0.000000 0.000000 0.000000 0.000000
-47.602029 77.091982 324.481424 -0.021093 0.061712 -61.094813 0.064219 -0.011364 61.094830 -0.000000 0.000000 0.000000 -0.000000 0.000000 0.000000 0.000000 0.000000 0.000000 -0.000000 0.000000 0.000000 -0.000000 0.000000 0.000000 -0.000000 0.000000 0.000000 -0.607804 0.787831 0.231041 0.000000 0.000000 0.000000 0.000000 0.000000 0.000000 -0.000000 0.000000 0.000000 -0.312471 -0.852013 -0.051831 -3.569061 -0.948711 1.033742 5.625273 -2.090187 -1.314814 0.000000 0.000000 0.000000 0.000000 0.000000 0.000000 0.064219 -0.011364 61.094830 0.716954 -0.421728 0.267822 0.669176 1.563455 0.400679 0.000000 0.000000 0.000000 0.064219 -0.011364 61.094830 -0.000000 0.000000 0.000000 -1.875894 -2.504524 1.107373 0.000000 0.000000 0.000000
-47.356915 77.164918 324.549264 -0.040159 0.087632 -61.045597 0.096120 -0.007284 61.045634 -0.000000 0.000000 0.000000 -0.000000 0.000000 0.000000 0.000000 0.000000 0.000000 -0.000000 0.000000 0.000000 0.859686 -0.419583 -0.214607 -0.675585 1.383532 0.397893 -1.361590 0.235435 0.140527 0.000000 0.000000 0.000000 0.000000 0.000000 0.000000 -0.000000 0.000000 0.000000 -0.578391 -1.579416 -0.099964 -5.820270 -1.626855 1.679103 9.340225 -3.517202 -2.224742 0.000000 0.000000 0.000000 0.000000 0.000000 0.000000 -0.040524 0.769909 60.854302 0.785811 -1.210650 0.696401 1.097100 2.819135 0.708315 0.000000 0.000000 0.000000 0.096120 -0.007284 61.045634 -0.000000 0.000000 0.000000 -3.338932 -4.538919 1.927148 0.000000 0.000000 0.000000
-47.186689 77.213802 324.558710 -0.057154 0.077549 -61.040605 0.095526 0.012459 61.040633 -0.000000 0.000000 0.000000 0.842744 -0.006433 -0.333996 0.000000 0.000000 0.000000 -0.000000 0.000000 0.000000 1.110145 -0.632007 -0.303140 -1.043694 1.898501 0.487667 -1.772547 -0.033642 0.114393 0.000000 0.000000 0.000000 0.000000 0.000000 0.000000 -0.000000 0.000000 0.000000 -0.786479 -2.152649 -0.140513 -7.398508 -2.290435 2.088105 11.944829 -4.224300 -2.895324 0.000000 0.000000 0.000000 0.000000 0.000000 0.000000 0.059027 0.894685 60.831693 1.289563 -1.345237 0.902339 1.290940 3.775669 0.947081 0.000000 0.000000 0.000000 0.095526 0.012459 61.040633 -0.000000 0.000000 0.000000 -4.373006 -6.029032 2.477276 0.000000 0.000000 0.000000
-47.091351 77.238636 324.509763 -0.072039 0.031391 -61.079748 0.062314 0.047875 61.079742 -0.000000 0.000000 0.000000 1.000358 0.194817 -0.517074 0.000000 0.000000 0.000000 -0.000000 0.000000 0.000000 1.240810 -0.845659 -0.379996 -1.435708 2.287621 0.504157 -2.000005 -0.553645 0.026394 0.000000 0.000000 0.000000 0.000000 0.000000 0.000000 -0.000000 0.000000 0.000000 -0.927929 -2.548864 -0.170045 -8.622879 -3.108527 2.313603 13.844777 -4.187584 -3.423595 0.000000 0.000000 0.000000 0.000000 0.000000 0.000000 0.237934 0.844391 60.905402 1.870909 -1.169891 1.004030 1.255986 4.440467 1.134681 0.000000 0.000000 0.000000 0.062314 0.047875 61.079742 -0.000000 0.000000 0.000000 -4.969896 -6.927832 2.775478 0.000000 0.000000 0.000000
-47.070901 77.239418 324.402421 -0.084784 -0.050776 -61.163237 -0.003587 0.098761 61.163203 -0.000000 0.000000 0.000000 1.098875 0.497520 -0.736878 0.000000 0.000000 0.000000 -0.000000 0.000000 0.000000 1.251561 -1.060252 -0.445823 -1.853534 2.546840 0.446572 -2.042603 -1.323814 -0.124403 0.000000 0.000000 0.000000 0.000000 0.000000 0.000000 -0.000000 0.000000 0.000000 -0.997451 -2.754389 -0.186146 -9.676587 -4.225519 2.364588 15.269039 -3.332183 -3.867773 0.000000 0.000000 0.000000 0.000000 0.000000 0.000000 -0.003587 0.098761 61.163203 3.230422 -0.877813 0.920000 0.995651 4.818645 1.282805 0.000000 0.000000 0.000000 0.676653 -0.536411 61.167359 0.228376 0.902223 -0.003357 -5.125983 -7.210550 2.834144 0.000000 0.000000 0.000000
-47.143790 77.176237 324.255640 -0.082549 -0.221507 -61.308165 -0.154678 0.178759 61.308247 -0.000000 0.000000 0.000000 1.152936 1.068948 -1.097797 0.000000 0.000000 0.000000 -0.000000 0.000000 0.000000 1.205663 -1.413367 -0.548585 -2.632676 3.282436 0.341846 -1.679424 -3.372762 -0.521724 0.000000 0.000000 0.000000 0.000000 0.000000 0.000000 -0.000000 0.000000 0.000000 -1.159623 -2.623823 -0.155306 -10.989991 -5.477587 2.465242 16.440096 -0.676290 -4.444795 0.000000 0.000000 0.000000 0.000000 0.000000 0.000000 0.836617 0.137620 61.392019 3.133217 0.321573 0.747618 1.437321 4.345906 1.162917 0.000000 0.000000 0.000000 0.507429 -0.745409 61.309971 0.492863 1.024481 -0.002856 -4.815478 -6.350584 2.831933 0.000000 0.000000 0.000000
-47.286611 77.120095 324.049185 -0.087428 -0.429024 -61.480104 -0.335221 0.281661 61.480600 -0.000000 0.000000 0.000000 1.128202 1.772338 -1.502579 0.000000 0.000000 0.000000 -0.000000 0.000000 0.000000 1.048348 -1.482055 -0.555830 -3.129394 2.989057 0.087092 -1.202412 -4.022211 -0.605060 0.000000 0.000000 0.000000 0.000000 0.000000 0.000000 -0.000000 0.000000 0.000000 -1.195241 -2.205139 -0.104038 -12.080598 -7.996287 1.993187 17.073091 2.396594 -4.720710 0.000000 0.000000 0.000000 0.000000 0.000000 0.000000 1.268107 -0.493232 61.790427 3.998373 1.580061 0.426199 0.825165 4.094226 1.286590 0.000000 0.000000 0.000000 0.325911 -0.734332 61.480685 0.577079 1.065991 -0.002842 -3.371266 -5.796250 1.488983 0.000000 0.000000 0.000000
-47.510800 77.062091 323.725296 -0.112855 -0.599661 -61.698243 -0.474479 0.383670 61.699241 0.035942 -0.901420 0.016125 0.958329 3.332910 -1.863061 0.000000 0.000000 0.000000 -0.035693 0.901430 -0.015561 0.611677 -1.507803 -0.526081 -3.198484 2.555135 -0.183395 -0.964949 -5.675873 -1.155775 0.000000 0.000000 0.000000 0.000000 0.000000 0.000000 -0.035693 0.901430 -0.015561 -1.046136 -1.968356 -0.092806 -12.988916 -10.687191 1.304965 17.474302 10.374050 -5.045771 0.000000 0.000000 0.000000 0.000000 0.000000 0.000000 1.852872 -1.187958 62.267734 4.967365 3.021862 0.032503 -0.871016 3.758283 1.477398 0.000000 0.000000 0.000000 0.270758 -0.549991 61.699510 1.058399 0.207155 0.253632 -2.912218 -2.801304 0.913951 0.000000 0.000000 0.000000
-47.799397 77.005835 323.344684 -0.156708 -0.728707 -61.985149 0.190659 -0.015254 61.987038 0.088147 -0.097716 0.010948 0.819282 3.857528 -2.036636 0.000000 0.000000 0.000000 -0.007287 1.001902 -0.015158 -0.021659 -1.703322 -0.532922 -3.814707 1.368850 -0.799068 -1.139250 -5.447444 -1.076702 0.000000 0.000000 0.000000 0.000000 0.000000 0.000000 -0.007287 1.001902 -0.015158 -0.588566 -2.241474 -0.170701 -12.684612 -11.424722 0.890643 17.462312 15.310486 -5.180247 0.000000 0.000000 0.000000 0.000000 0.000000 0.000000 2.466584 -1.903301 62.826060 6.120838 4.284579 -0.326254 -2.612149 3.725775 1.659919 0.000000 0.000000 0.000000 0.248705 -0.195702 61.987023 1.202194 -0.717067 0.510629 -1.906310 0.939917 0.213363 0.000000 0.000000 0.000000
-48.091089 76.966488 322.970554 -0.188762 -0.833107 -62.249299 0.165588 0.024900 62.250678 0.085262 -0.065330 0.010354 0.607833 4.100579 -2.058870 0.000000 0.000000 0.000000 0.792340 0.839038 -0.294304 -1.289551 -1.703242 -0.281887 -4.231511 0.437472 -1.260743 -0.981656 -4.434132 -0.681599 0.000000 0.000000 0.000000 0.000000 0.000000 0.000000 0.004598 1.033378 -0.014849 0.153551 -2.320158 -0.255123 -14.035158 -14.701016 -0.000823 18.663085 16.006633 -5.485174 0.000000 0.000000 0.000000 0.000000 0.000000 0.000000 2.985304 -2.593018 63.347991 7.317099 5.297269 -0.644952 -4.811172 3.753068 1.792902 0.000000 0.000000 0.000000 0.262214 0.235455 62.251887 1.505760 -1.762695 0.810095 -2.007859 3.508852 -0.061478 0.000000 0.000000 0.000000
-48.342894 76.954394 322.643890 -0.209571 -0.932315 -62.587421 0.166711 0.056004 62.588916 0.096656 -0.056860 0.011852 0.378877 4.319491 -2.047729 0.000000 0.000000 0.000000 1.042593 0.879788 -0.399918 -1.787766 -1.505862 -0.109515 -4.429368 -1.072820 -1.713538 -0.610880 -2.408060 -0.044380 0.000000 0.000000 0.000000 0.000000 0.000000 0.000000 -0.013262 1.111376 -0.017140 1.167499 -3.019469 -0.423929 -11.701285 -20.244936 -2.653213 16.542532 12.728359 -3.636421 0.000000 0.000000 0.000000 0.000000 0.000000 0.000000 3.359199 -3.172562 63.904457 8.404237 6.011466 -0.897791 -7.875746 4.431527 2.340536 0.000000 0.000000 0.000000 0.268585 0.736198 62.590351 1.992632 -2.849652 1.134553 -3.497864 5.733589 0.804276 0.000000 0.000000 0.000000
-48.500869 76.961517 322.416898 -0.191323 -0.990373 -62.999514 0.178760 0.061945 63.002267 0.111821 -0.066559 0.014615 0.177438 4.282955 -1.915254 0.000000 0.000000 0.000000 1.286685 0.800160 -0.486351 -2.024568 -1.109386 0.046234 -4.331367 -2.052727 -1.864047 -1.019979 -0.292732 0.565097 0.000000 0.000000 0.000000 0.000000 0.000000 0.000000 -0.056456 1.188091 -0.020992 2.164562 -3.154894 -0.530946 -11.897847 -19.908989 -2.534107 14.050698 14.027365 -2.394805 0.000000 0.000000 0.000000 0.000000 0.000000 0.000000 3.530739 -3.684136 64.486349 9.343169 6.365347 -1.060766 -10.151534 5.144222 2.829095 0.000000 0.000000 0.000000 0.296013 1.113196 63.002933 2.734933 -3.707688 1.426689 -4.222007 7.787393 0.670949 0.000000 0.000000 0.000000
